<?xml version="1.0" standalone="no"?><!DOCTYPE svg PUBLIC "-//W3C//DTD SVG 1.1//EN" "http://www.w3.org/Graphics/SVG/1.1/DTD/svg11.dtd"><svg t="1597817592631" class="icon" viewBox="0 0 1024 1024" version="1.1" xmlns="http://www.w3.org/2000/svg" p-id="808" xmlns:xlink="http://www.w3.org/1999/xlink" width="200" height="200"><defs><style type="text/css"></style></defs><path d="M805.31000889 40.63288889H218.68999111A114.46954667 114.46954667 0 0 0 104.22044445 155.10243556v703.12846222A114.46954667 114.46954667 0 0 0 218.68999111 972.70044445h586.62001778A114.46954667 114.46954667 0 0 0 919.77955555 858.23089778V155.10243556A114.46954667 114.46954667 0 0 0 805.31000889 40.63288889zM861.52533333 858.23089778A56.50659555 56.50659555 0 0 1 805.31000889 914.44622222H218.68999111A56.50659555 56.50659555 0 0 1 162.47466667 858.23089778V155.10243556A56.50659555 56.50659555 0 0 1 218.68999111 98.88711112h586.62001778A56.50659555 56.50659555 0 0 1 861.52533333 155.10243556z" p-id="809"></path><path d="M278.98311111 278.98311111h87.38133334v233.01688889a29.12711111 29.12711111 0 0 0 58.25422222 0v-233.01688889h87.38133333a29.12711111 29.12711111 0 0 0 0-58.25422222h-233.01688889a29.12711111 29.12711111 0 0 0 0 58.25422222zM745.01688889 366.36444445h-174.76266667a29.12711111 29.12711111 0 0 0 0 58.25422222h174.76266667a29.12711111 29.12711111 0 0 0 0-58.25422222zM745.01688889 482.87288889h-174.76266667a29.12711111 29.12711111 0 0 0 0 58.25422222h174.76266667a29.12711111 29.12711111 0 0 0 0-58.25422222zM745.01688889 599.38133333H278.98311111a29.12711111 29.12711111 0 0 0 0 58.25422222h466.03377778a29.12711111 29.12711111 0 0 0 0-58.25422222zM745.01688889 715.88977778H278.98311111a29.12711111 29.12711111 0 0 0 0 58.25422222h466.03377778a29.12711111 29.12711111 0 0 0 0-58.25422222z" p-id="810"></path></svg>